<svg width="55" height="23" viewBox="0 0 55 23" fill="none" xmlns="http://www.w3.org/2000/svg">
<rect x="0.046875" width="54" height="23" rx="4" fill="#FFEFD6"/>
<path d="M11.7168 10.748C12.5408 9.564 13.4248 8.972 14.3688 8.972C14.8088 8.972 15.2048 9.08 15.5568 9.296C15.9088 9.504 16.1808 9.8 16.3728 10.184C16.5728 10.56 16.6728 10.992 16.6728 11.48C16.6728 11.888 16.6008 12.236 16.4568 12.524C16.5608 12.596 16.6848 12.644 16.8288 12.668C16.9728 12.692 17.1608 12.704 17.3928 12.704H17.6808C17.7608 12.704 17.8008 12.928 17.8008 13.376C17.8008 13.792 17.7608 14 17.6808 14H17.3928C17.0008 14 16.6808 13.964 16.4328 13.892C16.1848 13.812 15.9648 13.672 15.7728 13.472C15.3168 13.824 14.7528 14 14.0808 14H9.62875L9.50875 12.704H10.4688V6.248H11.7168V10.748ZM14.0808 12.704C14.5048 12.704 14.8328 12.596 15.0648 12.38C15.3048 12.164 15.4248 11.864 15.4248 11.48C15.4248 11.104 15.3168 10.8 15.1008 10.568C14.8848 10.336 14.6048 10.22 14.2608 10.22C13.8688 10.22 13.4648 10.42 13.0488 10.82C12.6328 11.22 12.1568 11.848 11.6208 12.704H14.0808ZM18.6238 12.704C18.9518 12.704 19.1998 12.632 19.3678 12.488C19.5358 12.336 19.6198 12.124 19.6198 11.852V10.016H20.8678V11.852C20.8678 12.42 21.1918 12.704 21.8398 12.704C22.1678 12.704 22.4158 12.632 22.5838 12.488C22.7518 12.336 22.8358 12.124 22.8358 11.852V10.016H24.0838V11.852C24.0838 12.124 24.1598 12.336 24.3118 12.488C24.4638 12.632 24.6918 12.704 24.9958 12.704C25.3078 12.704 25.5398 12.632 25.6918 12.488C25.8518 12.336 25.9318 12.124 25.9318 11.852V10.016H27.1678V11.84C27.1678 12.52 26.9758 13.052 26.5918 13.436C26.2078 13.812 25.6758 14 24.9958 14C24.1798 14 23.6518 13.768 23.4118 13.304C23.0998 13.768 22.5758 14 21.8398 14C21.3918 14 21.0358 13.944 20.7718 13.832C20.5078 13.712 20.3158 13.536 20.1958 13.304C19.8838 13.768 19.3598 14 18.6238 14H17.6758C17.5958 14 17.5558 13.792 17.5558 13.376C17.5558 12.928 17.5958 12.704 17.6758 12.704H18.6238ZM34.6703 12.704C34.7503 12.704 34.7903 12.928 34.7903 13.376C34.7903 13.792 34.7503 14 34.6703 14H33.6023C33.5223 14.912 33.2063 15.624 32.6543 16.136C32.1103 16.648 31.3943 16.904 30.5063 16.904H28.9583L28.8503 15.608H30.5423C31.1103 15.608 31.5583 15.464 31.8863 15.176C32.2143 14.888 32.3823 14.496 32.3903 14H31.3583C30.5103 14 29.9023 13.828 29.5343 13.484C29.1663 13.132 28.9823 12.584 28.9823 11.84C28.9823 11.328 29.0783 10.876 29.2703 10.484C29.4703 10.092 29.7463 9.788 30.0983 9.572C30.4583 9.348 30.8703 9.236 31.3343 9.236C32.0463 9.236 32.6063 9.476 33.0143 9.956C33.4223 10.428 33.6263 11.076 33.6263 11.9V12.704H34.6703ZM30.2303 11.78C30.2303 12.116 30.3183 12.356 30.4943 12.5C30.6703 12.636 30.9783 12.704 31.4183 12.704H32.3903V11.924C32.3903 11.452 32.2943 11.096 32.1023 10.856C31.9103 10.608 31.6343 10.484 31.2743 10.484C30.9463 10.484 30.6903 10.604 30.5063 10.844C30.3223 11.076 30.2303 11.388 30.2303 11.78ZM36.108 12.704C36.364 12.704 36.568 12.64 36.72 12.512C36.88 12.376 36.96 12.188 36.96 11.948V10.016H38.208V11.9C38.208 12.436 38.484 12.704 39.036 12.704H39.444C39.524 12.704 39.564 12.924 39.564 13.364C39.564 13.788 39.524 14 39.444 14H38.988C38.276 14 37.804 13.784 37.572 13.352C37.292 13.784 36.804 14 36.108 14H34.668C34.588 14 34.548 13.792 34.548 13.376C34.548 12.928 34.588 12.704 34.668 12.704H36.108ZM38.34 7.496V8.648H35.076V7.496H38.34ZM39.7372 12.704C40.0012 12.704 40.1892 12.652 40.3012 12.548C40.4212 12.436 40.4812 12.264 40.4812 12.032V11.612C40.4812 10.844 40.6932 10.236 41.1172 9.788C41.5492 9.34 42.1332 9.116 42.8692 9.116C43.6052 9.116 44.1692 9.332 44.5612 9.764C44.9532 10.188 45.1492 10.8 45.1492 11.6C45.1492 12.36 44.9412 12.952 44.5252 13.376C44.1172 13.792 43.5492 14 42.8212 14C42.4132 14 42.0692 13.944 41.7892 13.832C41.5092 13.712 41.3052 13.548 41.1772 13.34C41.0332 13.572 40.8452 13.74 40.6132 13.844C40.3892 13.948 40.0972 14 39.7372 14H39.4492C39.3692 14 39.3292 13.792 39.3292 13.376C39.3292 12.928 39.3692 12.704 39.4492 12.704H39.7372ZM43.9132 11.6C43.9132 11.184 43.8212 10.876 43.6372 10.676C43.4612 10.468 43.1892 10.364 42.8212 10.364C42.4532 10.364 42.1772 10.468 41.9932 10.676C41.8172 10.876 41.7292 11.188 41.7292 11.612C41.7292 11.964 41.8212 12.236 42.0052 12.428C42.1892 12.612 42.4612 12.704 42.8212 12.704C43.1892 12.704 43.4612 12.616 43.6372 12.44C43.8212 12.256 43.9132 11.976 43.9132 11.6Z" fill="#FFAF37"/>
</svg>
