<svg width="32" height="23" viewBox="0 0 32 23" fill="none" xmlns="http://www.w3.org/2000/svg">
<rect x="0.046875" width="31" height="23" rx="4" fill="#FFE2DB"/>
<path d="M11.0763 6.248V12.704H12.4563C12.7043 12.704 12.9043 12.636 13.0563 12.5C13.2083 12.364 13.2843 12.18 13.2843 11.948V6.248H14.5203V11.984C14.5203 12.616 14.3323 13.112 13.9563 13.472C13.5883 13.824 13.0883 14 12.4563 14H9.84031V6.248H11.0763ZM18.8592 12.704C18.8992 12.704 18.9272 12.748 18.9432 12.836C18.9672 12.924 18.9792 13.104 18.9792 13.376C18.9792 13.632 18.9672 13.8 18.9432 13.88C18.9272 13.96 18.8992 14 18.8592 14H18.4992C17.8592 14 17.3752 13.812 17.0472 13.436C16.7192 13.06 16.5552 12.528 16.5552 11.84V6.248H17.7912V11.756C17.7912 12.084 17.8512 12.324 17.9712 12.476C18.0992 12.628 18.2992 12.704 18.5712 12.704H18.8592ZM22.1633 11.984C22.1633 12.616 21.9753 13.112 21.5993 13.472C21.2233 13.824 20.7193 14 20.0873 14H18.8633C18.7833 14 18.7433 13.792 18.7433 13.376C18.7433 12.928 18.7833 12.704 18.8633 12.704H20.0873C20.3353 12.704 20.5353 12.64 20.6873 12.512C20.8393 12.376 20.9153 12.188 20.9153 11.948V10.016H22.1633V11.984ZM19.1033 16.58V15.404H20.5433V16.58H19.1033Z" fill="#FF5F37"/>
</svg>
