<svg width="44" height="23" viewBox="0 0 44 23" fill="none" xmlns="http://www.w3.org/2000/svg">
<rect x="0.046875" width="43" height="23" rx="4" fill="#C3FFF1"/>
<path d="M16.7986 11.792C16.7986 11.984 16.8546 12.136 16.9666 12.248C17.0866 12.352 17.2546 12.404 17.4706 12.404H17.7946C17.8746 12.404 17.9146 12.68 17.9146 13.232C17.9146 13.744 17.8746 14 17.7946 14H17.5186C17.1906 14 16.9506 13.944 16.7986 13.832C16.7746 14.424 16.6186 14.948 16.3306 15.404C16.0426 15.868 15.6466 16.228 15.1426 16.484C14.6466 16.74 14.0746 16.868 13.4266 16.868H12.9466C11.9066 16.868 11.1026 16.568 10.5346 15.968C9.97463 15.376 9.69463 14.544 9.69463 13.472V11.072H11.2186V13.436C11.2186 14.044 11.3586 14.5 11.6386 14.804C11.9186 15.116 12.3546 15.272 12.9466 15.272H13.4266C14.0026 15.272 14.4546 15.12 14.7826 14.816C15.1106 14.512 15.2746 14.092 15.2746 13.556V9.872H16.7986V11.792ZM12.1666 9.692V8.324H13.7986V9.692H12.1666ZM19.9929 12.404C20.1929 12.404 20.3529 12.352 20.4729 12.248C20.5929 12.136 20.6529 11.984 20.6529 11.792V9.872H22.1889V11.744C22.1889 12.184 22.4129 12.404 22.8609 12.404H23.3049C23.3849 12.404 23.4249 12.672 23.4249 13.208C23.4249 13.736 23.3849 14 23.3049 14H22.7889C22.1009 14 21.6449 13.808 21.4209 13.424C21.2769 13.624 21.0849 13.772 20.8449 13.868C20.6129 13.956 20.3289 14 19.9929 14H17.7969C17.7169 14 17.6769 13.744 17.6769 13.232C17.6769 12.68 17.7169 12.404 17.7969 12.404H19.9929ZM20.9289 15.248V16.616H17.5449V15.248H20.9289ZM26.6767 11.864C26.6767 12.528 26.4767 13.052 26.0767 13.436C25.6847 13.812 25.1527 14 24.4807 14H23.3047C23.2247 14 23.1847 13.744 23.1847 13.232C23.1847 12.68 23.2247 12.404 23.3047 12.404H24.4807C24.6807 12.404 24.8407 12.352 24.9607 12.248C25.0887 12.136 25.1527 11.984 25.1527 11.792V9.872H26.6767V11.864ZM25.9567 15.248V16.616H22.5727V15.248H25.9567ZM30.8726 12.404C30.9126 12.404 30.9406 12.456 30.9566 12.56C30.9806 12.664 30.9926 12.888 30.9926 13.232C30.9926 13.552 30.9806 13.76 30.9566 13.856C30.9406 13.952 30.9126 14 30.8726 14H30.4406C29.7686 14 29.2566 13.808 28.9046 13.424C28.5606 13.032 28.3886 12.476 28.3886 11.756V6.272H29.9246V11.648C29.9246 11.904 29.9726 12.096 30.0686 12.224C30.1726 12.344 30.3326 12.404 30.5486 12.404H30.8726ZM34.247 11.864C34.247 12.528 34.047 13.052 33.647 13.436C33.255 13.812 32.723 14 32.051 14H30.875C30.795 14 30.755 13.744 30.755 13.232C30.755 12.68 30.795 12.404 30.875 12.404H32.051C32.251 12.404 32.411 12.352 32.531 12.248C32.659 12.136 32.723 11.984 32.723 11.792V9.872H34.247V11.864ZM33.527 15.248V16.616H30.143V15.248H33.527ZM31.151 18.5V17.192H32.519V18.5H31.151Z" fill="#11A483"/>
</svg>
