<svg width="22" height="22" viewBox="0 0 22 22" fill="none" xmlns="http://www.w3.org/2000/svg">
<path d="M14.8405 1.83337H7.15884C3.82217 1.83337 1.83301 3.82254 1.83301 7.15921V14.8317C1.83301 18.1775 3.82217 20.1667 7.15884 20.1667H14.8313C18.168 20.1667 20.1572 18.1775 20.1572 14.8409V7.15921C20.1663 3.82254 18.1772 1.83337 14.8405 1.83337ZM15.3813 8.89171L10.1838 14.0892C10.0555 14.2175 9.88134 14.2909 9.69801 14.2909C9.51467 14.2909 9.34051 14.2175 9.21217 14.0892L6.61801 11.495C6.35217 11.2292 6.35217 10.7892 6.61801 10.5234C6.88384 10.2575 7.32384 10.2575 7.58967 10.5234L9.69801 12.6317L14.4097 7.92004C14.6755 7.65421 15.1155 7.65421 15.3813 7.92004C15.6472 8.18587 15.6472 8.61671 15.3813 8.89171Z" fill="#007BFF"/>
</svg>
